<?xml version="1.0" standalone="no"?>
<!DOCTYPE svg PUBLIC "-//W3C//DTD SVG 20010904//EN"
 "http://www.w3.org/TR/2001/REC-SVG-20010904/DTD/svg10.dtd">
<svg version="1.0" xmlns="http://www.w3.org/2000/svg"
 width="1474.000000pt" height="1474.000000pt" viewBox="0 0 1474.000000 1474.000000"
 preserveAspectRatio="xMidYMid meet">
<metadata>
Created by potrace 1.14, written by Peter Selinger 2001-2017
</metadata>
<g transform="translate(0.000000,1474.000000) scale(0.100000,-0.100000)"
fill="#000000" stroke="none">
<path d="M10145 14729 c-80 -11 -139 -20 -155 -24 -8 -2 -31 -6 -50 -9 -93
-14 -407 -109 -513 -155 -23 -10 -67 -29 -97 -42 -89 -38 -308 -152 -410 -214
-90 -54 -296 -195 -343 -235 -12 -10 -56 -46 -97 -80 -124 -102 -271 -250
-416 -419 -89 -105 -248 -333 -326 -471 -64 -111 -162 -310 -202 -410 -21 -52
-43 -106 -48 -120 -19 -47 -85 -258 -92 -295 -2 -11 -9 -38 -14 -60 -12 -43
-14 -54 -37 -185 -21 -123 -26 -188 -29 -340 -3 -122 13 -292 27 -307 20 -19
321 -26 419 -9 16 2 47 7 70 11 65 11 78 14 143 30 33 9 69 17 79 20 40 9 213
69 271 92 483 199 894 499 1212 883 119 144 323 432 323 456 0 2 11 22 25 45
43 67 151 288 201 409 110 270 182 548 218 840 20 166 13 566 -11 590 -7 7
-89 7 -148 -1z"/>
<path d="M9918 11175 c-2 -2 -48 -6 -103 -9 -54 -4 -101 -9 -105 -11 -3 -1
-32 -6 -65 -10 -54 -6 -98 -13 -175 -30 -14 -3 -41 -8 -60 -11 -155 -28 -687
-196 -835 -263 -11 -5 -121 -48 -245 -96 -124 -48 -234 -91 -245 -95 -82 -36
-313 -106 -450 -136 -62 -13 -271 -12 -353 2 -80 14 -290 72 -348 95 -16 7
-34 13 -40 14 -5 2 -131 51 -280 110 -412 164 -665 257 -779 285 -16 4 -64 17
-105 28 -41 11 -102 26 -135 32 -33 7 -64 13 -70 15 -5 1 -32 5 -60 9 -27 4
-61 10 -75 12 -193 33 -639 22 -862 -21 -13 -3 -50 -10 -83 -16 -431 -76 -922
-277 -1290 -529 -662 -452 -1144 -1072 -1449 -1863 -37 -96 -121 -341 -132
-387 -2 -8 -21 -86 -43 -173 -22 -87 -42 -173 -45 -192 -3 -19 -10 -54 -15
-77 -5 -24 -12 -61 -15 -83 -4 -22 -8 -47 -11 -55 -3 -13 -11 -63 -20 -140 -2
-14 -6 -43 -9 -65 -3 -22 -8 -71 -11 -110 -4 -38 -9 -83 -11 -100 -26 -216
-26 -885 0 -1150 2 -16 7 -66 11 -110 4 -44 8 -91 10 -105 2 -14 6 -47 10 -75
12 -103 33 -259 39 -292 3 -12 8 -43 12 -70 8 -55 7 -51 28 -163 8 -47 18 -98
21 -115 6 -34 9 -52 24 -115 5 -25 12 -56 15 -70 4 -23 61 -264 70 -300 2 -8
12 -44 21 -80 25 -98 93 -333 127 -440 99 -312 243 -699 351 -940 54 -122 70
-159 89 -200 87 -193 296 -587 419 -792 173 -286 441 -666 775 -1098 338 -438
667 -757 985 -955 64 -40 269 -137 314 -149 6 -2 17 -6 25 -9 142 -57 461 -89
651 -66 35 5 87 11 114 14 28 4 79 13 115 21 36 8 76 17 90 19 14 3 36 10 50
14 14 5 52 17 85 27 56 16 274 102 620 244 262 108 546 193 720 215 22 3 47 8
55 10 8 3 44 7 80 10 36 3 92 8 125 11 119 11 459 4 545 -11 14 -3 43 -7 65
-10 87 -11 110 -15 198 -34 188 -41 444 -130 655 -227 41 -19 77 -34 82 -34 5
0 21 -7 37 -15 105 -55 394 -156 543 -190 97 -22 95 -21 160 -30 30 -4 64 -9
75 -12 51 -11 387 -9 475 3 484 67 935 353 1386 879 38 44 71 82 74 85 3 3 23
28 45 55 21 28 42 52 45 55 16 15 238 314 367 495 145 204 320 464 359 535 10
19 22 37 25 40 32 28 408 741 461 876 9 23 30 70 47 105 72 156 250 634 274
739 6 24 0 29 -110 80 -139 65 -471 263 -503 300 -3 3 -30 24 -60 45 -162 117
-364 304 -519 480 -227 257 -396 523 -530 836 -74 173 -160 457 -185 609 -3
19 -8 46 -11 60 -10 43 -34 231 -42 325 -13 161 -7 553 11 652 2 10 7 44 11
77 22 186 98 506 145 611 5 11 12 31 16 45 9 34 90 223 123 290 139 277 280
488 496 740 17 19 87 92 156 161 174 174 328 300 546 450 l82 56 -71 94 c-152
203 -365 430 -524 559 -43 36 -88 73 -98 82 -11 10 -38 30 -60 45 -23 16 -46
33 -53 38 -66 56 -295 192 -453 271 -219 109 -545 226 -748 269 -170 36 -300
59 -402 71 -209 24 -247 26 -457 28 -112 2 -204 2 -205 1z"/>
</g>
</svg>
